<?xml version="1.0" encoding="utf-8"?>
<!-- Generator: Adobe Illustrator 27.4.0, SVG Export Plug-In . SVG Version: 6.00 Build 0)  -->
<svg version="1.1" id="Layer_1" xmlns="http://www.w3.org/2000/svg" xmlns:xlink="http://www.w3.org/1999/xlink" x="0px" y="0px"
	 viewBox="0 0 1000 1000" style="enable-background:new 0 0 1000 1000;" xml:space="preserve">
<style type="text/css">
	.st0{fill:#FFFFFF;}
</style>
<g>
	<g>
		<g>
			<circle cx="500" cy="500" r="500"/>
		</g>
	</g>
	<path class="st0" d="M814.4,287.1c-1-1.2-2.2-2.3-3.5-3.3c-3.9-3.1-8.7-5-14-5.3c-0.5,0-1.1-0.1-1.6,0H204.7c-0.5-0.1-1.2,0-1.7,0
		c-5.2,0.3-10,2.3-13.9,5.3c-1.3,1-2.4,2-3.4,3.2c-3.9,4.4-6.2,10.1-6.2,16.4c0,0,0,0,0,0c0,0,0,0,0,0c0,0,0,0,0,0v393
		c0,0.4,0.2,0.8,0.2,1.2c0.1,2.5,0.6,5,1.5,7.4c0.2,0.5,0.2,1,0.4,1.4c0.1,0.1,0.1,0.3,0.1,0.4c1.2,2.6,2.8,4.7,4.7,6.7
		c0.5,0.5,1.1,1,1.7,1.4c1.7,1.5,3.5,2.7,5.4,3.7c0.8,0.4,1.5,0.8,2.3,1.1c2.8,1,5.7,1.8,8.7,1.8h590.9c3.1,0,5.9-0.7,8.7-1.8
		c0.8-0.3,1.5-0.7,2.3-1.1c2-1,3.8-2.2,5.4-3.7c0.6-0.5,1.2-0.9,1.7-1.4c1.9-2,3.5-4.2,4.7-6.7c0.1-0.1,0.1-0.3,0.1-0.4
		c0.2-0.5,0.2-1,0.4-1.4c0.9-2.4,1.4-4.9,1.5-7.4c0-0.4,0.2-0.8,0.2-1.2v-393c0,0,0,0,0,0c0,0,0,0,0,0c0,0,0,0,0,0
		C820.6,297.2,818.2,291.4,814.4,287.1z M770.4,628.8L641.2,478.7l129.1-118.2V628.8z M730.8,328.6L590,457.5c0,0,0,0-0.1,0
		c0,0,0,0.1-0.1,0.1L500,539.8l-89.8-82.1c0,0-0.1-0.1-0.1-0.1c0,0-0.1,0-0.1-0.1L269.2,328.6H730.8z M358.8,478.7L229.6,628.8
		V360.6L358.8,478.7z M259.3,671.4l136.6-158.8l87.2,79.8c9.6,8.8,24.3,8.8,33.9,0l87.2-79.8l136.6,158.8H259.3z"/>
</g>
</svg>
