<?xml version="1.0" encoding="utf-8"?>
<!-- Generator: Adobe Illustrator 27.3.1, SVG Export Plug-In . SVG Version: 6.00 Build 0)  -->
<svg version="1.1" id="Layer_1" xmlns="http://www.w3.org/2000/svg" xmlns:xlink="http://www.w3.org/1999/xlink" x="0px" y="0px"
	 viewBox="0 0 1000 1000" style="enable-background:new 0 0 1000 1000;" xml:space="preserve">
<style type="text/css">
	.st0{fill:#FFFFFF;}
</style>
<g id="Tel">
	<g>
		<g>
			<g>
				<circle cx="500" cy="500" r="500"/>
			</g>
		</g>
	</g>
	<g>
		<g>
			<g>
				<path class="st0" d="M587.2,846.8c-3.5,0-7-0.7-10.3-2.2c-214.9-97-347-320.1-328.8-555.1c1.2-15.7,10.2-29.8,23.8-37.7
					l127.4-73.5c11.9-6.9,26.2-8.3,39.3-3.8c13,4.5,23.5,14.4,28.7,27.1l44.6,109.7c8.9,21.9,0.2,47.3-20.3,59.1l-58,33.5
					c22.1,82.1,65.5,157.3,125.6,217.5l58-33.5c20.5-11.8,46.9-6.7,61.4,12l72.7,93.5c8.5,10.9,11.8,24.9,9.1,38.4
					c-2.6,13.5-11,25.2-23,32.1l-137.7,79.5C595.9,845.6,591.6,846.8,587.2,846.8z M421.9,223.3l-124.8,72
					C281.9,503.1,397.2,702.4,586,793.4l123.8-71.5l-69.5-89.3l-57.6,33.3c-18.6,10.8-42.2,7.8-57.3-7.2c0,0,0,0,0,0
					c-67.7-67.3-116.4-151.7-140.9-244c-5.4-20.6,3.8-42.5,22.4-53.3l57.6-33.3L421.9,223.3z M712.3,720.4L712.3,720.4L712.3,720.4
					L712.3,720.4z M560.7,623L560.7,623C560.7,623,560.7,623,560.7,623z"/>
			</g>
		</g>
	</g>
</g>
</svg>
